<?xml version="1.0" encoding="iso-8859-1"?>
<!-- Generator: Adobe Illustrator 18.1.1, SVG Export Plug-In . SVG Version: 6.00 Build 0)  -->
<svg xmlns="http://www.w3.org/2000/svg" xmlns:xlink="http://www.w3.org/1999/xlink" version="1.1" id="Capa_1" x="0px" y="0px" viewBox="0 0 525.153 525.153" style="enable-background:new 0 0 525.153 525.153;" xml:space="preserve" width="512px" height="512px">
<g>
	<path d="M262.576,83.543C143.235,83.543,41.29,157.765,0,262.576c41.29,104.812,143.235,179.033,262.576,179.033   s221.264-74.221,262.576-179.033C483.841,157.765,381.917,83.543,262.576,83.543z M262.576,381.917   c-65.885,0-119.341-53.456-119.341-119.341s53.456-119.341,119.341-119.341s119.341,53.456,119.341,119.341   S328.461,381.917,262.576,381.917z M262.576,190.98c-39.649,0-71.596,31.969-71.596,71.596s31.969,71.596,71.596,71.596   s71.596-31.969,71.596-71.596S302.225,190.98,262.576,190.98z" fill="#6ea7d1"/>
</g>
<g>
</g>
<g>
</g>
<g>
</g>
<g>
</g>
<g>
</g>
<g>
</g>
<g>
</g>
<g>
</g>
<g>
</g>
<g>
</g>
<g>
</g>
<g>
</g>
<g>
</g>
<g>
</g>
<g>
</g>
</svg>
